<?xml version="1.0" encoding="iso-8859-1"?>
<!-- Generator: Adobe Illustrator 18.1.1, SVG Export Plug-In . SVG Version: 6.00 Build 0)  -->
<svg xmlns="http://www.w3.org/2000/svg" xmlns:xlink="http://www.w3.org/1999/xlink" version="1.1" id="Capa_1" x="0px" y="0px" viewBox="0 0 99.5 99.5" style="enable-background:new 0 0 99.5 99.5;" xml:space="preserve" width="40px" height="40px">
<g>
	<path d="M73.189,50.091c-1.373-0.417-2.314-0.705-1.596-2.539c1.555-3.985,1.718-7.422,0.031-9.874   c-3.164-4.6-11.818-4.353-21.735-0.123c0-0.005-3.116,1.387-2.32-1.129c1.526-4.994,1.294-9.174-1.078-11.589   c-5.38-5.481-19.691,0.208-31.967,12.696C5.334,46.889,0,56.806,0,65.38c0,16.399,20.66,27.37,40.874,27.37   C67.371,92.75,85,76.08,85,63.639C85,56.12,78.779,51.854,73.189,50.091z M40.929,85.397c-16.13,1.598-30.051-5.729-31.1-16.38   c-1.047-10.646,11.182-20.578,27.31-22.181c16.131-1.606,30.055,5.727,31.1,16.373C69.283,73.86,57.062,83.793,40.929,85.397z    M99.5,36.737C99.492,20.175,86.065,6.75,69.5,6.75c-1.934,0-3.5,1.567-3.5,3.5c0,1.934,1.566,3.5,3.5,3.5   c12.703,0,23,10.298,23,23c0,1.934,1.568,3.5,3.5,3.5c1.934,0,3.5-1.566,3.5-3.5C99.5,36.75,99.5,36.742,99.5,36.737z    M85.593,36.223c-1.599-7.809-7.755-13.964-15.565-15.564c-1.891-0.389-3.742,0.83-4.13,2.723c-0.39,1.893,0.829,3.742,2.72,4.133   c5.078,1.04,9.08,5.039,10.119,10.117c0.391,1.893,2.24,3.111,4.133,2.723C84.762,39.964,85.98,38.115,85.593,36.223z    M32.656,57.264c-6.498,1.306-10.882,6.755-9.794,12.169c1.087,5.415,7.237,8.745,13.735,7.438   c6.496-1.306,10.882-6.753,9.793-12.169C45.304,59.289,39.152,55.958,32.656,57.264z" fill="#D80027"/>
</g>
<g>
</g>
<g>
</g>
<g>
</g>
<g>
</g>
<g>
</g>
<g>
</g>
<g>
</g>
<g>
</g>
<g>
</g>
<g>
</g>
<g>
</g>
<g>
</g>
<g>
</g>
<g>
</g>
<g>
</g>
</svg>
